<?xml version="1.0" encoding="utf-8"?>
<!-- Generator: Adobe Illustrator 22.1.0, SVG Export Plug-In . SVG Version: 6.00 Build 0)  -->
<svg version="1.1" id="Layer_1" xmlns="http://www.w3.org/2000/svg" xmlns:xlink="http://www.w3.org/1999/xlink" x="0px" y="0px"
	 viewBox="0 0 150 150" style="enable-background:new 0 0 150 150;" xml:space="preserve">
<style type="text/css">
	.st0{fill:#FFFFFF;}
	.st1{fill:none;stroke:#FFFFFF;stroke-width:0.81;stroke-miterlimit:10;}
	.st2{fill:none;stroke:#FFFFFF;stroke-width:9.800000e-02;stroke-miterlimit:10;}
	.st3{fill:none;stroke:#FFFFFF;stroke-width:4.900000e-02;stroke-miterlimit:10;}
</style>
<path class="st0" d="M25.6,106.5c0.1-0.4,0.6-0.6,1-0.5c0.4,0.1,0.6,0.6,0.5,1c-0.1,0.4-0.6,0.6-1,0.5
	C25.7,107.3,25.5,106.9,25.6,106.5"/>
<path class="st1" d="M25.6,106.5c0.1-0.4,0.6-0.6,1-0.5c0.4,0.1,0.6,0.6,0.5,1c-0.1,0.4-0.6,0.6-1,0.5
	C25.7,107.3,25.5,106.9,25.6,106.5z"/>
<path class="st0" d="M48.5,107c-0.1-0.4,0.1-0.9,0.5-1c0.4-0.1,0.9,0.1,1,0.5c0.1,0.4-0.1,0.9-0.5,1C49.1,107.6,48.6,107.4,48.5,107
	"/>
<path class="st1" d="M48.5,107c-0.1-0.4,0.1-0.9,0.5-1c0.4-0.1,0.9,0.1,1,0.5c0.1,0.4-0.1,0.9-0.5,1C49.1,107.6,48.6,107.4,48.5,107
	z"/>
<g>
	<path class="st0" d="M47.8,54.3c0,0.4-0.4,0.8-0.8,0.8c-0.4,0-0.8-0.4-0.8-0.8c0-0.4,0.4-0.8,0.8-0.8
		C47.5,53.5,47.8,53.8,47.8,54.3"/>
	<path class="st1" d="M47.8,54.3c0,0.4-0.4,0.8-0.8,0.8c-0.4,0-0.8-0.4-0.8-0.8c0-0.4,0.4-0.8,0.8-0.8
		C47.5,53.5,47.8,53.8,47.8,54.3z"/>
	<path class="st0" d="M28.1,64.7c0.4,0.2,0.5,0.7,0.3,1.1c-0.2,0.4-0.7,0.5-1.1,0.3c-0.4-0.2-0.5-0.7-0.3-1.1
		C27.3,64.6,27.8,64.5,28.1,64.7"/>
	<path class="st1" d="M28.1,64.7c0.4,0.2,0.5,0.7,0.3,1.1c-0.2,0.4-0.7,0.5-1.1,0.3c-0.4-0.2-0.5-0.7-0.3-1.1
		C27.3,64.6,27.8,64.5,28.1,64.7z"/>
	<path class="st0" d="M27.4,87c0.4-0.2,0.9-0.1,1.1,0.3c0.2,0.4,0.1,0.9-0.3,1.1c-0.4,0.2-0.9,0.1-1.1-0.3
		C26.8,87.7,27,87.2,27.4,87"/>
	<path class="st1" d="M27.4,87c0.4-0.2,0.9-0.1,1.1,0.3c0.2,0.4,0.1,0.9-0.3,1.1c-0.4,0.2-0.9,0.1-1.1-0.3
		C26.8,87.7,27,87.2,27.4,87z"/>
	<path class="st0" d="M46.2,98.8c0-0.4,0.4-0.8,0.8-0.8c0.4,0,0.8,0.4,0.8,0.8c0,0.4-0.4,0.8-0.8,0.8C46.6,99.6,46.2,99.2,46.2,98.8
		"/>
	<path class="st1" d="M46.2,98.8c0-0.4,0.4-0.8,0.8-0.8c0.4,0,0.8,0.4,0.8,0.8c0,0.4-0.4,0.8-0.8,0.8C46.6,99.6,46.2,99.2,46.2,98.8
		z"/>
	<path class="st0" d="M65.9,88.3c-0.4-0.2-0.5-0.7-0.3-1.1c0.2-0.4,0.7-0.5,1.1-0.3c0.4,0.2,0.5,0.7,0.3,1.1
		C66.8,88.4,66.3,88.6,65.9,88.3"/>
	<path class="st1" d="M65.9,88.3c-0.4-0.2-0.5-0.7-0.3-1.1c0.2-0.4,0.7-0.5,1.1-0.3c0.4,0.2,0.5,0.7,0.3,1.1
		C66.8,88.4,66.3,88.6,65.9,88.3z"/>
	<path class="st0" d="M66.7,66.1c-0.4,0.2-0.9,0.1-1.1-0.3c-0.2-0.4-0.1-0.9,0.3-1.1c0.4-0.2,0.9-0.1,1.1,0.3
		C67.2,65.4,67.1,65.9,66.7,66.1"/>
	<path class="st1" d="M66.7,66.1c-0.4,0.2-0.9,0.1-1.1-0.3c-0.2-0.4-0.1-0.9,0.3-1.1c0.4-0.2,0.9-0.1,1.1,0.3
		C67.2,65.4,67.1,65.9,66.7,66.1z"/>
	<path class="st0" d="M26.2,50.1c0.3,0.3,0.2,0.8-0.1,1.1c-0.3,0.3-0.8,0.2-1.1-0.1c-0.3-0.3-0.2-0.8,0.1-1.1
		C25.4,49.7,25.9,49.7,26.2,50.1"/>
	<path class="st1" d="M26.2,50.1c0.3,0.3,0.2,0.8-0.1,1.1c-0.3,0.3-0.8,0.2-1.1-0.1c-0.3-0.3-0.2-0.8,0.1-1.1
		C25.4,49.7,25.9,49.7,26.2,50.1z"/>
	<path class="st0" d="M14.3,69.6c0.4,0.1,0.7,0.5,0.6,0.9c-0.1,0.4-0.5,0.7-0.9,0.6c-0.4-0.1-0.7-0.5-0.6-0.9
		C13.4,69.8,13.9,69.5,14.3,69.6"/>
	<path class="st1" d="M14.3,69.6c0.4,0.1,0.7,0.5,0.6,0.9c-0.1,0.4-0.5,0.7-0.9,0.6c-0.4-0.1-0.7-0.5-0.6-0.9
		C13.4,69.8,13.9,69.5,14.3,69.6z"/>
	<path class="st0" d="M17.7,92.1c0.4-0.2,0.9-0.1,1.1,0.3c0.2,0.4,0.1,0.9-0.3,1.1c-0.4,0.2-0.9,0.1-1.1-0.3
		C17.2,92.8,17.3,92.4,17.7,92.1"/>
	<path class="st1" d="M17.7,92.1c0.4-0.2,0.9-0.1,1.1,0.3c0.2,0.4,0.1,0.9-0.3,1.1c-0.4,0.2-0.9,0.1-1.1-0.3
		C17.2,92.8,17.3,92.4,17.7,92.1z"/>
	<path class="st0" d="M75.5,93.5c-0.4-0.2-0.5-0.7-0.3-1.1c0.2-0.4,0.7-0.5,1.1-0.3c0.4,0.2,0.5,0.7,0.3,1.1
		C76.4,93.6,75.9,93.7,75.5,93.5"/>
	<path class="st1" d="M75.5,93.5c-0.4-0.2-0.5-0.7-0.3-1.1c0.2-0.4,0.7-0.5,1.1-0.3c0.4,0.2,0.5,0.7,0.3,1.1
		C76.4,93.6,75.9,93.7,75.5,93.5z"/>
	<path class="st0" d="M80,71.1c-0.4,0.1-0.8-0.2-0.9-0.6c-0.1-0.4,0.2-0.8,0.6-0.9c0.4-0.1,0.8,0.2,0.9,0.6
		C80.7,70.6,80.5,71,80,71.1"/>
	<path class="st1" d="M80,71.1c-0.4,0.1-0.8-0.2-0.9-0.6c-0.1-0.4,0.2-0.8,0.6-0.9c0.4-0.1,0.8,0.2,0.9,0.6
		C80.7,70.6,80.5,71,80,71.1z"/>
	<path class="st0" d="M69.1,51.1c-0.3,0.3-0.8,0.4-1.1,0.1c-0.3-0.3-0.4-0.8-0.1-1.1c0.3-0.3,0.8-0.4,1.1-0.1
		C69.3,50.2,69.4,50.7,69.1,51.1"/>
	<path class="st1" d="M69.1,51.1c-0.3,0.3-0.8,0.4-1.1,0.1c-0.3-0.3-0.4-0.8-0.1-1.1c0.3-0.3,0.8-0.4,1.1-0.1
		C69.3,50.2,69.4,50.7,69.1,51.1z"/>
	<polygon class="st0" points="47.2,68.9 41.6,78.7 52.9,78.7 	"/>
	<polygon class="st2" points="47.2,68.9 41.6,78.7 52.9,78.7 	"/>
	<path class="st3" d="M58.4,107.4L27.7,65.3 M58.4,107.4L27.8,65.3 M58.4,107.4L27.8,87.5 M58.4,107.4L27.8,87.5 M58.4,107.4
		L47,98.7 M58.4,107.4L47,98.6 M58.4,107.4L25.6,50.4 M58.4,107.4L25.6,50.4 M58.4,107.4L14.1,70.2 M58.4,107.4L14.2,70.2
		 M58.4,107.4L18.1,92.7 M58.4,107.4L18.1,92.7 M58.4,107.4H35.6 M58.4,107.4l-22.8,0 M58.5,107.4L47,42.6 M58.5,107.4L47,42.6
		 M58.5,107.4L47,54.1 M58.5,107.4L47,54.1 M58.5,107.4l7.9-19.8 M58.5,107.4l7.8-19.9 M58.5,107.4l7.9-42.1 M58.5,107.4l7.8-42.1
		 M58.5,107.4L27.7,65.3 M58.5,107.4L27.8,65.3 M58.4,107.4L27.8,87.5 M58.4,107.4L27.8,87.5 M58.4,107.4L47,98.7 M58.4,107.4
		L47,98.6 M58.5,107.4L25.6,50.4 M58.5,107.4L25.6,50.4 M58.4,107.4L14.1,70.2 M58.4,107.4L14.2,70.2 M58.4,107.4L18.1,92.7
		 M58.4,107.4L18.1,92.7 M58.4,107.4l-22.8,0 M58.4,107.4H35.6 M58.4,107.4L47,42.6 M58.4,107.4L47,42.6 M58.4,107.4L47,54.1
		 M58.4,107.4L47,54.1 M58.4,107.4l7.9-19.8 M58.4,107.4l7.9-19.8 M58.4,107.4l7.9-42.1 M58.4,107.4l7.9-42.1 M75.9,92.7L27.8,65.3
		 M75.9,92.7L27.8,65.3 M75.9,92.7l-48.2-5.2 M75.9,92.7l-48.2-5.2 M75.9,92.7l-28.9,6 M75.9,92.7L47,98.6 M75.9,92.7l-9.6-5.2
		 M75.9,92.7l-9.6-5.2 M75.9,92.7L14.2,70.2 M75.9,92.7L14.2,70.2 M75.9,92.7H18.1 M75.9,92.7l-57.8,0 M75.9,92.7l-40.3,14.7
		 M75.9,92.7l-40.3,14.7 M75.9,92.7l-17.5,14.7 M75.9,92.7l-17.5,14.7 M75.9,92.7L47,42.6 M75.9,92.7L47,42.6 M75.9,92.7L47,54.1
		 M75.9,92.7L47,54.2 M75.9,92.7l-9.6-27.4 M75.9,92.7l-9.7-27.4 M75.9,92.7L25.6,50.4 M75.9,92.7L25.6,50.4 M75.9,92.7L27.8,65.3
		 M75.9,92.7L27.8,65.3 M75.9,92.7l-48.2-5.2 M75.9,92.7l-48.2-5.2 M75.9,92.7l-28.9,6 M75.9,92.7l-28.9,6 M75.9,92.7l-9.6-5.2
		 M75.9,92.7l-9.6-5.2 M75.9,92.7L14.2,70.2 M75.9,92.7L14.2,70.2 M75.9,92.7l-57.8,0 M75.9,92.7H18.1 M75.9,92.7l-40.3,14.7
		 M75.9,92.7l-40.3,14.7 M75.9,92.7l-17.5,14.7 M75.9,92.7l-17.5,14.7 M75.9,92.7L47,42.6 M75.9,92.7L47,42.6 M75.9,92.7L47,54.1
		 M75.9,92.7L47,54.2 M75.9,92.7l-9.6-27.4 M75.9,92.7l-9.6-27.4 M75.9,92.7L25.6,50.4 M75.9,92.7L25.6,50.4 M79.9,70.2L27.8,87.5
		 M79.9,70.2L27.8,87.5 M79.9,70.2L47,98.7 M79.9,70.2L47,98.6 M79.9,70.2L66.3,87.5 M79.9,70.2L66.3,87.5 M79.9,70.2L18.1,92.7
		 M79.9,70.2L18.1,92.7 M79.9,70.2l-44.3,37.2 M79.9,70.2l-44.3,37.2 M79.9,70.2l-21.5,37.2 M79.9,70.2l-21.5,37.2 M79.9,70.2
		l-4,22.5 M79.9,70.2l-4,22.5 M79.9,70.2L47,42.6 M79.9,70.2L47,42.6 M79.9,70.2L47,54.1 M79.9,70.2L47,54.2 M79.9,70.2l-52.1-4.9
		 M79.9,70.2l-52.1-4.9 M79.9,70.2l-13.6-4.9 M79.9,70.2l-13.6-4.9 M79.9,70.2L25.6,50.4 M79.9,70.2L25.6,50.4 M79.9,70.2H14.2
		 M79.9,70.2l-65.7,0 M79.9,70.2L27.8,87.5 M79.9,70.2L27.8,87.5 M79.9,70.2L47,98.7 M79.9,70.2L47,98.6 M79.9,70.2L66.3,87.5
		 M79.9,70.2L66.3,87.5 M79.9,70.2L18.1,92.7 M79.9,70.2L18.1,92.7 M79.9,70.2l-44.3,37.2 M79.9,70.2l-44.3,37.2 M79.9,70.2
		l-21.4,37.2 M79.9,70.2l-21.5,37.2 M79.9,70.2l-3.9,22.5 M79.9,70.2l-4,22.5 M79.9,70.2L47,42.6 M79.9,70.2L47,42.6 M79.9,70.2
		L47,54.1 M79.9,70.2L47,54.2 M79.9,70.2l-52.1-5 M79.9,70.2l-52.1-4.9 M79.9,70.2l-13.6-5 M79.9,70.2l-13.6-4.9 M79.9,70.2
		L25.6,50.4 M79.9,70.2L25.6,50.4 M79.9,70.2l-65.7,0 M79.9,70.2H14.2 M68.5,50.4L47,98.7 M68.5,50.4L47,98.6 M68.5,50.4l-2.2,37.1
		 M68.5,50.4l-2.2,37.1 M68.5,50.4l-2.2,14.8 M68.5,50.4l-2.2,14.8 M68.5,50.4l-32.9,56.9 M68.5,50.4l-32.9,56.9 M68.5,50.4
		l-10,56.9 M68.5,50.4l-10.1,56.9 M68.5,50.4l7.5,42.3 M68.5,50.4l7.4,42.3 M68.5,50.4l11.4,19.8 M68.5,50.4l11.4,19.8 M68.5,50.4
		L47,42.6 M68.5,50.4L47,42.6 M68.5,50.4L47,54.1 M68.5,50.4L47,54.2 M68.5,50.4L27.8,65.3 M68.5,50.4L27.8,65.3 M68.5,50.4
		L27.7,87.5 M68.5,50.4L27.8,87.5 M68.5,50.4H25.6 M68.5,50.4l-42.9,0 M68.5,50.4L14.2,70.2 M68.5,50.4L14.2,70.2 M68.5,50.4
		L18.1,92.7 M68.5,50.4L18.1,92.7 M68.5,50.4L47,98.7 M68.5,50.4L47,98.6 M68.5,50.4l-2.2,37.1 M68.5,50.4l-2.2,37.1 M68.5,50.4
		l-2.2,14.8 M68.5,50.4l-2.2,14.8 M68.5,50.4l-32.9,56.9 M68.5,50.4l-32.9,56.9 M68.5,50.4l-10,56.9 M68.5,50.4l-10,56.9 M68.5,50.4
		l7.5,42.3 M68.5,50.4l7.5,42.3 M68.5,50.4l11.4,19.8 M68.5,50.4l11.4,19.8 M68.5,50.4L47,42.6 M68.5,50.4L47,42.6 M68.5,50.4
		L47,54.1 M68.5,50.4L47,54.2 M68.5,50.4L27.8,65.3 M68.5,50.4L27.8,65.3 M68.5,50.4L27.7,87.5 M68.5,50.4L27.8,87.5 M68.5,50.4
		l-42.9,0 M68.5,50.4H25.6 M68.5,50.4L14.2,70.2 M68.5,50.4L14.2,70.2 M68.5,50.4L18.1,92.7 M68.5,50.4L18.1,92.7"/>
	<path class="st3" d="M27.8,87.5L47,54.1 M27.8,87.5L47,54.1 M27.8,87.5l0-22.3 M27.8,87.5V65.3 M47,98.7v-56 M47,98.7V54.1
		 M47,98.7L27.7,65.3 M47,98.7L27.8,65.3 M47,98.7L27.8,87.5 M47,98.7L27.8,87.5 M47,98.7l0-56 M47,98.7v-56 M47,98.7l0-44.5
		 M47,98.7V54.1 M47,98.6L27.7,65.3 M47,98.6L27.8,65.3 M47,98.6L27.8,87.5 M47,98.6L27.8,87.5 M47,98.7l0-56 M47,98.7l0-44.5
		 M66.3,87.5L27.8,65.3 M66.3,87.5H27.8 M66.3,87.5l-38.5,0 M66.3,87.5L47,98.7 M66.3,87.5L47,98.6 M66.3,87.5L47,42.6 M66.3,87.5
		L47,42.6 M66.3,87.5L47,54.1 M66.3,87.5L47,54.1 M66.3,87.5L27.8,65.3 M66.3,87.5L27.8,65.3 M66.3,87.5l-38.5,0 M66.3,87.5H27.8
		 M66.3,87.5L47,98.7 M66.3,87.5L47,98.6 M66.3,87.5L47,42.6 M66.3,87.5L47,42.6 M66.3,87.5L47,54.1 M66.3,87.5L47,54.1 M66.3,87.5
		L27.8,65.3 M66.3,65.3L27.8,87.5 M66.3,65.3L47,98.7 M66.3,65.3L47,98.6 M66.3,65.3v22.3 M66.3,65.3l0,22.3 M66.3,65.3L47,42.6
		 M66.3,65.3L47,42.6 M66.3,65.3L47,54.1 M66.3,65.3L47,54.2 M66.3,65.3H27.8 M66.3,65.3l-38.5,0 M66.3,65.3L27.8,87.5 M66.3,65.3
		L27.8,87.5 M66.3,65.3L47,98.7 M66.3,65.3L47,98.6 M66.3,65.3l0,22.3 M66.3,65.3v22.3 M66.3,65.3L47,42.6 M66.3,65.3L47,42.6
		 M66.3,65.3L47,54.1 M66.3,65.3L47,54.2 M66.3,65.3l-38.5,0 M66.3,65.3H27.8 M66.3,65.3L27.8,87.5 M25.6,50.4L47,42.6 M25.6,50.4
		L47,42.6 M25.6,50.4L47,54.1 M25.6,50.4L47,54.2 M25.6,50.4l40.7,37.1 M25.6,50.4l40.7,37.1 M25.6,50.4l40.7,14.8 M25.6,50.4
		l40.7,14.9 M25.6,50.4l2.2,14.8 M25.6,50.4l2.2,14.8 M25.6,50.4l2.2,37.1 M25.6,50.4l2.2,37.1 M25.6,50.4L47,98.7 M25.6,50.4
		L47,98.6 M25.6,50.4L47,42.6 M25.6,50.4L47,42.6 M25.6,50.4L47,54.1 M25.6,50.4L47,54.2 M25.6,50.4l40.7,37.1 M25.6,50.4l40.7,37.1
		 M25.6,50.4l40.7,14.8 M25.6,50.4l40.7,14.8 M25.6,50.4l2.2,14.8 M25.6,50.4l2.2,14.8 M25.6,50.4l2.2,37.1 M25.6,50.4l2.2,37.1
		 M25.6,50.4L47,98.7 M25.6,50.4L47,98.6 M14.1,70.2L47,42.6 M14.1,70.2L47,42.6 M14.2,70.2L47,54.1 M14.2,70.2L47,54.2 M14.2,70.2
		l13.6-4.9 M14.2,70.2l13.6-4.9 M14.2,70.2l52.1-4.9 M14.2,70.2l52.1-4.9 M14.1,70.2l11.4-19.8 M14.1,70.2l11.4-19.8 M14.1,70.2
		l13.6,17.3 M14.1,70.2l13.6,17.3 M14.1,70.2L47,98.7 M14.1,70.2L47,98.6 M14.2,70.2l52.1,17.3 M14.2,70.2l52.2,17.3 M14.2,70.2
		L47,42.6 M14.2,70.2L47,42.6 M14.2,70.2L47,54.1 M14.2,70.2L47,54.2 M14.2,70.2l13.6-5 M14.2,70.2l13.6-4.9 M14.2,70.2l52.1-5
		 M14.2,70.2l52.1-4.9 M14.2,70.2l11.4-19.8 M14.2,70.2l11.4-19.8 M14.2,70.2l13.6,17.3 M14.2,70.2l13.6,17.3 M14.2,70.2L47,98.7
		 M14.2,70.2L47,98.6 M14.2,70.2l52.1,17.3 M14.2,70.2l52.1,17.3 M18.1,92.7L47,42.6 M18.1,92.7L47,42.6 M18.1,92.7L47,54.1
		 M18.1,92.7L47,54.2 M18.1,92.7l9.6-27.4 M18.1,92.7l9.7-27.4 M18.1,92.7l7.5-42.3 M18.1,92.7l7.5-42.3 M18.1,92.7l-4-22.5
		 M18.1,92.7l-3.9-22.5 M18.1,92.7l9.6-5.2 M18.1,92.7l9.6-5.2 M18.1,92.7l28.9,6 M18.1,92.7L47,98.6 M18.1,92.7l48.2-5.2
		 M18.1,92.7l48.2-5.2 M18.1,92.7l48.2-27.4 M18.1,92.7l48.2-27.4 M18.1,92.7L47,42.6 M18.1,92.7L47,42.6 M18.1,92.7L47,54.1
		 M18.1,92.7L47,54.2 M18.1,92.7l9.6-27.4 M18.1,92.7l9.6-27.4 M18.1,92.7l7.4-42.3 M18.1,92.7l7.5-42.3 M18.1,92.7l-4-22.5
		 M18.1,92.7l-4-22.5 M18.1,92.7l9.6-5.2 M18.1,92.7l9.6-5.2 M18.1,92.7l28.9,6 M18.1,92.7l28.9,6 M18.1,92.7l48.2-5.2 M18.1,92.7
		l48.2-5.2 M18.1,92.7l48.2-27.4 M18.1,92.7l48.2-27.4 M35.6,107.4L47,42.6 M35.6,107.4L47,42.6 M35.6,107.4L47,54.1 M35.6,107.4
		L47,54.1 M35.6,107.4l-7.9-42.1 M35.6,107.4l-7.8-42.1 M35.6,107.4l-7.9-19.8 M35.6,107.4l-7.8-19.9 M35.6,107.4l-10-56.9
		 M35.6,107.4l-10-56.9 M35.6,107.4L14.1,70.2 M35.6,107.4L14.2,70.2 M35.6,107.4L18.1,92.7 M35.6,107.4L18.1,92.7 M35.6,107.4
		L47,98.7 M35.6,107.4L47,98.6 M35.6,107.4l30.7-19.8 M35.6,107.4l30.7-19.9 M35.6,107.4l30.7-42.1 M35.6,107.4l30.7-42.1
		 M35.6,107.4L47,42.6 M35.6,107.4L47,42.6 M35.6,107.4L47,54.1 M35.6,107.4L47,54.1 M35.6,107.4l-7.9-42.1 M35.6,107.4l-7.9-42.1
		 M35.6,107.4l-7.9-19.8 M35.6,107.4l-7.9-19.8 M35.6,107.4L25.6,50.4 M35.6,107.4l-10-56.9 M35.6,107.4L14.1,70.2 M35.6,107.4
		L14.2,70.2 M35.6,107.4L18.1,92.7 M35.6,107.4L18.1,92.7 M35.6,107.4L47,98.7 M35.6,107.4L47,98.6 M35.6,107.4l30.7-19.8
		 M35.6,107.4l30.7-19.8 M35.6,107.4l30.7-42.1 M35.6,107.4l30.7-42.1"/>
	<path class="st3" d="M47,54.1l0-11.5 M47,54.1l0-11.5 M47,54.1V42.6 M47,54.1V42.6 M27.7,65.3L47,42.6 M27.7,65.3L47,42.6
		 M27.8,65.3L47,54.1 M27.8,65.3L47,54.2 M27.8,65.3L47,42.6 M27.8,65.3L47,42.6 M27.8,65.3L47,54.1 M27.8,65.3L47,54.2 M27.7,87.5
		L47,42.6 M27.7,87.5L47,42.6 M27.7,87.5L47,54.1 M27.7,87.5L47,54.1 M27.7,87.5V65.3 M27.7,87.5l0-22.3 M27.8,87.5L47,42.6
		 M27.8,87.5L47,42.6"/>
	<path class="st0" d="M136.4,79.6h-0.3c-0.1,0-0.2-0.1-0.2-0.2v-8c0-0.1,0.1-0.2,0.2-0.2h0.3c0.1,0,0.2,0.1,0.2,0.2v8
		C136.6,79.5,136.6,79.6,136.4,79.6"/>
	<path class="st1" d="M136.4,79.6h-0.3c-0.1,0-0.2-0.1-0.2-0.2v-8c0-0.1,0.1-0.2,0.2-0.2h0.3c0.1,0,0.2,0.1,0.2,0.2v8
		C136.6,79.5,136.6,79.6,136.4,79.6z"/>
	<path class="st0" d="M111.3,79.5L111.3,79.5c-0.1,0.2-0.3,0.2-0.5,0.1l-8.9-7.9c-0.1-0.1-0.1-0.3,0-0.4l0,0c0.1-0.1,0.3-0.1,0.4,0
		l8.9,7.9C111.4,79.2,111.4,79.4,111.3,79.5"/>
	<path class="st1" d="M111.3,79.5L111.3,79.5c-0.1,0.2-0.3,0.2-0.5,0.1l-8.9-7.9c-0.1-0.1-0.1-0.3,0-0.4l0,0c0.1-0.1,0.3-0.1,0.4,0
		l8.9,7.9C111.4,79.2,111.4,79.4,111.3,79.5z"/>
	<path class="st0" d="M128.4,71.2L128.4,71.2c-0.2-0.1-0.4-0.1-0.5,0.1l-4.6,7.4l-4.6-7.3c-0.1-0.1-0.3-0.2-0.4-0.1l-0.1,0
		c-0.1,0.1-0.2,0.3-0.1,0.4l4.8,7.7c0,0.1,0.1,0.1,0.1,0.2l0.1,0c0.1,0.1,0.3,0,0.4-0.1l4.9-7.8C128.6,71.5,128.5,71.3,128.4,71.2"
		/>
	<path class="st1" d="M128.4,71.2L128.4,71.2c-0.2-0.1-0.4-0.1-0.5,0.1l-4.6,7.4l-4.6-7.3c-0.1-0.1-0.3-0.2-0.4-0.1l-0.1,0
		c-0.1,0.1-0.2,0.3-0.1,0.4l4.8,7.7c0,0.1,0.1,0.1,0.1,0.2l0.1,0c0.1,0.1,0.3,0,0.4-0.1l4.9-7.8C128.6,71.5,128.5,71.3,128.4,71.2z"
		/>
	<path class="st0" d="M111.2,71.3L111.2,71.3c0.1,0.2,0.1,0.3,0,0.5l-8.9,7.9c-0.1,0.1-0.3,0.1-0.4,0l0,0c-0.1-0.1-0.1-0.3,0-0.4
		l8.9-7.9C111,71.1,111.1,71.1,111.2,71.3"/>
	<path class="st1" d="M111.2,71.3L111.2,71.3c0.1,0.2,0.1,0.3,0,0.5l-8.9,7.9c-0.1,0.1-0.3,0.1-0.4,0l0,0c-0.1-0.1-0.1-0.3,0-0.4
		l8.9-7.9C111,71.1,111.1,71.1,111.2,71.3z"/>
</g>
<path class="st0" d="M136,79.8h-0.3c-0.1,0-0.2-0.1-0.2-0.2v-8c0-0.1,0.1-0.2,0.2-0.2h0.3c0.1,0,0.2,0.1,0.2,0.2v8
	C136.2,79.7,136.1,79.8,136,79.8"/>
<path class="st1" d="M136,79.8h-0.3c-0.1,0-0.2-0.1-0.2-0.2v-8c0-0.1,0.1-0.2,0.2-0.2h0.3c0.1,0,0.2,0.1,0.2,0.2v8
	C136.2,79.7,136.1,79.8,136,79.8z"/>
<path class="st0" d="M144.8,79.8h-0.3c-0.1,0-0.2-0.1-0.2-0.2v-8c0-0.1,0.1-0.2,0.2-0.2h0.3c0.1,0,0.2,0.1,0.2,0.2v8
	C145,79.7,144.9,79.8,144.8,79.8"/>
<path class="st1" d="M144.8,79.8h-0.3c-0.1,0-0.2-0.1-0.2-0.2v-8c0-0.1,0.1-0.2,0.2-0.2h0.3c0.1,0,0.2,0.1,0.2,0.2v8
	C145,79.7,144.9,79.8,144.8,79.8z"/>
</svg>
