<?xml version="1.0" encoding="utf-8"?>
<!-- Generator: Adobe Illustrator 22.1.0, SVG Export Plug-In . SVG Version: 6.00 Build 0)  -->
<svg version="1.1" id="Layer_1" xmlns="http://www.w3.org/2000/svg" xmlns:xlink="http://www.w3.org/1999/xlink" x="0px" y="0px"
	 viewBox="0 0 259.2 79.2" style="enable-background:new 0 0 259.2 79.2;" xml:space="preserve">
<style type="text/css">
	.st0{fill:#FFFFFF;}
</style>
<g>
	<g>
		<path class="st0" d="M230.3,30.6c0-0.2,0-0.4,0-0.6V5.4c0-0.5-0.4-1-1-1h-16.2c-0.5,0-1,0.4-1,1v24.2c0,0.5-0.4,1-1,1H187
			c-0.5,0-1,0.4-1,1v16.2c0,0.5,0.4,1,1,1h24.6c0.3,0,0.5,0,0.8,0C212.7,38.9,220.5,31,230.3,30.6z"/>
		<path class="st0" d="M255.6,30.6H231c-0.3,0-0.5,0-0.8,0c-0.3,9.8-8.1,17.7-17.9,18.1c0,0.2,0,0.4,0,0.6v24.6c0,0.5,0.4,1,1,1
			h16.2c0.5,0,1-0.4,1-1V49.7c0-0.5,0.4-1,1-1h24.2c0.5,0,1-0.4,1-1V31.5C256.6,31,256.2,30.6,255.6,30.6z"/>
		<path class="st0" d="M230.3,30.6c-9.8,0.4-17.6,8.3-17.9,18.1C222.1,48.3,230,40.4,230.3,30.6z"/>
	</g>
	<g>
		<rect x="26.4" y="4.6" class="st0" width="7.7" height="14.1"/>
		<rect x="3.7" y="4.6" class="st0" width="7.7" height="14.1"/>
		<polygon class="st0" points="68.2,4.6 75,18.7 83.2,18.7 76.6,4.6 		"/>
		<polygon class="st0" points="50.4,4.6 44.7,18.7 52.5,18.7 55,12.2 57.8,18.7 65.7,18.7 59.4,4.6 		"/>
		<path class="st0" d="M153.5,18.7c-4.7-2.8-11-3.3-11-6.3c0-1.6,1.8-2.6,4.5-2.6c2.6,0,5.3,0.8,9.8,2.8V6.6
			c-3.9-1.7-7-2.4-10.5-2.4c-7.2,0-11.8,3.5-11.8,8.9c0,2.4,0.7,4.2,1.9,5.6H153.5z"/>
		<polygon class="st0" points="94.5,18.7 100.9,4.6 92.6,4.6 86.4,18.7 		"/>
		<polygon class="st0" points="111.8,18.7 114.3,12.2 117.1,18.7 125,18.7 118.7,4.6 109.7,4.6 104,18.7 		"/>
		<polygon class="st0" points="102.5,22.5 97.2,35.7 105.4,35.7 110.4,22.5 		"/>
		<polygon class="st0" points="118.6,22.5 124.1,35.7 132.5,35.7 126.6,22.5 		"/>
		<polygon class="st0" points="76.7,22.5 83.2,36.1 86.6,36.1 92.8,22.5 		"/>
		<path class="st0" d="M142.2,22.5c4,1.6,8.2,2.4,8.2,5c0,1.8-1.6,2.9-4.6,2.9c-3.4,0-6.1-1-10.6-4v6.7c3.1,1.6,5.8,3,11.2,3
			c6.9,0,11.9-3.5,11.9-9.4c0-1.7-0.4-3-1-4.2H142.2z"/>
		<rect x="26.4" y="22.5" class="st0" width="7.7" height="13.2"/>
		<rect x="3.7" y="22.5" class="st0" width="7.7" height="13.2"/>
		<polygon class="st0" points="43.2,22.5 37.9,35.7 46.1,35.7 51.1,22.5 		"/>
		<polygon class="st0" points="59.3,22.5 64.8,35.7 73.2,35.7 67.3,22.5 		"/>
	</g>
	<g>
		<path class="st0" d="M3.7,43.1h3.6v14.2h18.4V43.1h3.6V75h-3.6V60.7H7.3V75H3.7V43.1z"/>
		<path class="st0" d="M35.1,43.1h23v3.3H38.7v10.9h17.4v3.3H38.7v11.2h19.7V75H35.1V43.1z"/>
		<path class="st0" d="M74.3,42.9h3.4L92.2,75h-3.9l-3.7-8.4H67.2L63.4,75h-3.7L74.3,42.9z M83.1,63.3l-7.2-16.2l-7.3,16.2H83.1z"/>
		<path class="st0" d="M95.3,43.1h3.6v28.6h17.9V75H95.3V43.1z"/>
		<path class="st0" d="M124.1,46.4h-10.7v-3.3h25v3.3h-10.7V75h-3.6V46.4z"/>
		<path class="st0" d="M142,43.1h3.6v14.2H164V43.1h3.6V75H164V60.7h-18.4V75H142V43.1z"/>
	</g>
</g>
</svg>
