<?xml version="1.0" encoding="utf-8"?>
<!-- Generator: Adobe Illustrator 22.1.0, SVG Export Plug-In . SVG Version: 6.00 Build 0)  -->
<svg version="1.1" id="Layer_1" xmlns="http://www.w3.org/2000/svg" xmlns:xlink="http://www.w3.org/1999/xlink" x="0px" y="0px"
	 viewBox="0 0 50 50" style="enable-background:new 0 0 50 50;" xml:space="preserve">
<style type="text/css">
	.st0{fill:#FFFFFF;}
</style>
<g>
	<path class="st0" d="M31.1,18.8c0-0.1,0-0.3,0-0.4V1.7c0-0.4-0.3-0.7-0.7-0.7h-11c-0.4,0-0.7,0.3-0.7,0.7v16.5
		c0,0.4-0.3,0.7-0.7,0.7H1.7c-0.4,0-0.7,0.3-0.7,0.7v11c0,0.4,0.3,0.7,0.7,0.7h16.7c0.2,0,0.4,0,0.5,0
		C19.1,24.5,24.4,19.1,31.1,18.8z"/>
	<path class="st0" d="M48.3,18.8H31.6c-0.2,0-0.4,0-0.5,0c-0.2,6.7-5.5,12.1-12.2,12.4c0,0.1,0,0.3,0,0.4v16.8
		c0,0.4,0.3,0.7,0.7,0.7h11c0.4,0,0.7-0.3,0.7-0.7V31.9c0-0.4,0.3-0.7,0.7-0.7h16.4c0.4,0,0.7-0.3,0.7-0.7v-11
		C49,19.1,48.7,18.8,48.3,18.8z"/>
	<path class="st0" d="M31.1,18.8c-6.6,0.3-12,5.7-12.2,12.4C25.6,30.9,30.9,25.5,31.1,18.8z"/>
</g>
</svg>
